
<global>
amp_veltrack=0
ampeg_release=0.45
</global>

<group>
group_label=PP
lpc_hicc1=42
lpc_locc1=0

<region>
hikey=a3
hivel=127
lokey=g#3
lovel=1
lpc=S7sqQSBQ6cFvZg1CK9PBwU0NGkHKbC7AF1O7PzJdBL9d+u++Kw/KP2LGa8Cw7JBACHVPwCps+b2BmJVABPLtwCEe60BDVqbAMBdfQJ9Z+L9gHtS9g4TsPhWy/T6tIqK+
lpc_rms=-37.65
pitch_keycenter=a3
sample=SoloViolin1_tenuto_half_PP_A3.opus
</region>

<region>
hikey=a4
hivel=127
lokey=g#4
lovel=1
lpc=hJJOQXgJBML1ZxxCg3/wwRRppUHuKofBy+VfQXy5LMF5UeBACjylv59iasA7bH1AoCA+wAVvLD/nwT9A5i9JwOA4nD+ttvK/utqgQC53c8AkZly/+LwoQKaxT78GGSc9
lpc_rms=-33.51
pitch_keycenter=a4
sample=SoloViolin1_tenuto_half_PP_A4.opus
</region>

<region>
hikey=a5
hivel=127
lokey=g#5
lovel=1
lpc=o2gIQSHO+8BTb7dAKe0ywDr52kALcl7AhFMaQNHmqr4R+xhAdPHFP6inVb6s5qI/ZST1vbsgSEBQPEQ/D8kOv4WtyT/4wB4/slFBQJWzcr+q4e8/ZM1nv2NBQUAEh9A/
lpc_rms=-33.40
pitch_keycenter=a5
sample=SoloViolin1_tenuto_half_PP_A5.opus
</region>

<region>
hikey=a6
hivel=127
lokey=g#6
lovel=1
lpc=9ZdrQRrvJsG0KBNAYZ8SQIJMLj9LN/w+zppWPuIrmb9eges/ZKQYQH0dvj/18cm+sGg7QLGj6MDPQqXAy14VQZ/5c8CZi0i+eZNpv//Cnj8tp5E/mS7aPcJbiL9pM8K/
lpc_rms=-32.81
pitch_keycenter=a6
sample=SoloViolin1_tenuto_half_PP_A6.opus
</region>

<region>
hikey=b3
hivel=127
lokey=a#3
lovel=1
lpc=nJzOQd7NkcJmxbJCdCZuwqlVgUE9mLpAob26wDuXHz/tluc/5LJ5P7erBcFJFjNBzRHjwHS8w75o/x9BahBvwfhaakGIPD3B5g4cQRf/4sAlMFlA0eiwvyTYnj5/XTg+
lpc_rms=-30.50
pitch_keycenter=b3
sample=SoloViolin1_tenuto_half_PP_B3.opus
</region>

<region>
hikey=b4
hivel=127
lokey=a#4
lovel=1
lpc=Ze85QZhctcEEOJtBjwExwYTHAUGerQ/BZQ8HQSJ96sBMmv9AeQeywGOGUz9BMYQ/MZA6wLF3nD+TWBhAfvaZv9WmQr/oqEU/wLTtP3kpRcDH2UlAL6AfwH+gNT/kPGA/
lpc_rms=-29.82
pitch_keycenter=b4
sample=SoloViolin1_tenuto_half_PP_B4.opus
</region>

<region>
hikey=b5
hivel=127
lokey=a#5
lovel=1
lpc=TUT7QDg9BsEDeuBAiaWAwFIHIEDwADM+VezkvT1bpz5Y5Q4/q2wBv6deJkAT4CPAQh82QCcGC8AfGCdAPBFOv2pgBT8uCfA+oVCsvtnvUz8xPLA/2R0twETumkA/Zp7A
lpc_rms=-34.95
pitch_keycenter=b5
sample=SoloViolin1_tenuto_half_PP_B5.opus
</region>

<region>
hikey=b6
hivel=127
lokey=a#6
lovel=1
lpc=UAteQZNGG8ETvAJA7OZTvz+hoED+g3XAagvuPxjrvL/aMYhAJ8DKP8HOSr/CzyQ/kj1OweW/6kBI27k/gfKoPk62Z8Dnk3FAKjymvs9Z5z/ZVEnAmVvsvmtUjz7k1vI/
lpc_rms=-34.80
pitch_keycenter=b6
sample=SoloViolin1_tenuto_half_PP_B6.opus
</region>

<region>
hikey=c#4
hivel=127
lokey=c4
lovel=1
lpc=hffgQVjUnsLGA8hChuyUwrtdCUKdUC3BEM8IQBqByL/h/RJAlI9gQHLOWMHEL4VBgoU+wVbbxkBI2Q8/hTfCwA/sHEE4gxzBYeMkQbQ9FsGcR2RApCEeQAcqpcB1wx9A
lpc_rms=-32.08
pitch_keycenter=c#4
sample=SoloViolin1_tenuto_half_PP_C#4.opus
</region>

<region>
hikey=c#5
hivel=127
lokey=c5
lovel=1
lpc=ASSuQHlrJ8GezA9B6G6FwIRbQ0AhbonApgBvQN793r/HnN67pSaoP8kIk7+pnD4+TjMAv+0jVT63La8/Q9Crv8LSXj90o9G/aQwlQNGIib93bVm+tGy6PtLtUb6+CAs/
lpc_rms=-38.16
pitch_keycenter=c#5
sample=SoloViolin1_tenuto_half_PP_C#5.opus
</region>

<region>
hikey=c#6
hivel=127
lokey=c6
lovel=1
lpc=1LQNQdzB5sB3AFRAbfzNvxcpA0CvRfG/UTMDQGlCNL+MiHk/EZ9zv8lj7D9M+Wu/OxdPP9nkgb7OOpk/xQ10v5pZkD8WL6K+9puDP6K9lL8wXixAxNTAwM2rhr7uG/E/
lpc_rms=-36.45
pitch_keycenter=c#6
sample=SoloViolin1_tenuto_half_PP_C#6.opus
</region>

<region>
hikey=E7
hivel=127
lokey=c7
lovel=1
lpc=B+ULQRVDyMCcqPI/m0+cvkhCuz6kNeo+d8GSP97yV7+FDgBA+98LQFcCY8BUF/jAFxsDQcBJ9L8YzMs/50qlvjC5yb041E4+lR8iP8Ojw7/reyq/27jtPxdd+j8XSRDA
lpc_rms=-38.50
pitch_keycenter=C#7
sample=SoloViolin1_tenuto_half_PP_C#7.opus
</region>

<region>
hikey=d#4
hivel=127
lokey=d4
lovel=1
lpc=L6wRQSBew8GbkOZByziRwbKDi0DhelBAsX58wPEWyD9n3VA/Ncruvyd0Gz+rJvo/NvUZwGFmbr/ROJJAHQ3FwBXur0DGzSvAd0a3vj0i6j+D84m//s8xvx6HkD8yGz++
lpc_rms=-41.31
pitch_keycenter=d#4
sample=SoloViolin1_tenuto_half_PP_D#4.opus
</region>

<region>
hikey=d#5
hivel=127
lokey=d5
lovel=1
lpc=SziaQD1OG8FTnw9BXHLBwAomrkBY48DAaGG4QDm1iMAxVzxANWIOwOCgMkAyGTHAlOvvP4m9zb8H0ytAeZ5BwP72GUA7SwXAoQPrP81PiD1N3ry/Ap+BP+FYeb7qaI0+
lpc_rms=-41.41
pitch_keycenter=d#5
sample=SoloViolin1_tenuto_half_PP_D#5.opus
</region>

<region>
hikey=d#6
hivel=127
lokey=d6
lovel=1
lpc=gt5MQScuOMG9lZJA68CNv7/9IUAl3YS/x1HwP1WECMCn1BhAVfU+v6Y+Gz9aXNi92QVoP+8/Pj3bcDc+v92LPgJDHD96LVA+PfIxu7zxKMG5sQBBFi+Fv6gpIb9WrVu/
lpc_rms=-35.16
pitch_keycenter=d#6
sample=SoloViolin1_tenuto_half_PP_D#6.opus
</region>

<region>
hikey=f4
hivel=127
lokey=e4
lovel=1
lpc=fbglQTpt0sE75u1BiFOnweh8Q0HmpxfBafnmQGc2ZsCo1dM/rKi3PcBJzL9J5QpAHclJwN1CAUDV5JU/u3APwMsBkT/Eg0u/X68pQA4gB8AfTC7AeQWoQBDzVsDciIk/
lpc_rms=-37.44
pitch_keycenter=f4
sample=SoloViolin1_tenuto_half_PP_F4.opus
</region>

<region>
hikey=f5
hivel=127
lokey=e5
lovel=1
lpc=ntCGQDb97sCoIbpAiW0QwJqA6j/ExyTAYh8rQPH2EsBC9Mo/MF8gP9k8zL9oH4A/n5Ovvdu4R78j7Ls/Lvw3vnQqIL+8SpO+Ci7gP38olb88JvI+1Wt+v5Qvuj+AUbO+
lpc_rms=-41.63
pitch_keycenter=f5
sample=SoloViolin1_tenuto_half_PP_F5.opus
</region>

<region>
hikey=f6
hivel=127
lokey=e6
lovel=1
lpc=Mr/4QLCqv8D52kdAeDIWwDP8FkAgbAbAQ+EYP3tQ5T1fbW8+uy6HPrzrVb7wNQ8/BGufPqjz87wfshU/VltvveU9Uz9V09/ALEiIQC0QgL+YBIo/dXgYv93nLz9gmGA/
lpc_rms=-42.09
pitch_keycenter=f6
sample=SoloViolin1_tenuto_half_PP_F6.opus
</region>

<region>
hivel=127
key=g3
lovel=1
lpc=7BSVQc7QVcJXwH5CsmoMwpMobUDGTbq+lh80QYrgPcEfm41AShS2PwDzyMDrQcpAEH2bvovhhsDT/6dAXQ61wImng0DqMcC+1H9hv5fIP7/e0Fg/4osKQNFGdsDLggZA
lpc_rms=-35.95
sample=SoloViolin1_tenuto_half_PP_G3.opus
</region>

<region>
hikey=g4
hivel=127
lokey=f#4
lovel=1
lpc=REovQZrS78G5vRZC9BvtwQZDk0FZuFPBA1QmQVfks8A6KiJAbSicv0JUq77MGps/l6sMwJ3asT9oO/Q/Ss+XwMq3rUBymXLAj8r/P1dgAj8TB5HAlrHSQNrfncB71fg/
lpc_rms=-34.92
pitch_keycenter=g4
sample=SoloViolin1_tenuto_half_PP_G4.opus
</region>

<region>
hikey=g5
hivel=127
lokey=f#5
lovel=1
lpc=oV6RQOos7cBA4MJAeUdFwFziYUD8NGrANR80QJP3gr8YKeM+FiFuP+KBF7/Fj+I+dONFvzp8xz81Sj++xlIov1sGlD+rteM+dAnnv/5rAEBHoEy/WT39PwGdPMACghFA
lpc_rms=-35.06
pitch_keycenter=g5
sample=SoloViolin1_tenuto_half_PP_G5.opus
</region>

<region>
hikey=g6
hivel=127
lokey=f#6
lovel=1
lpc=sZFUQUqnGMGKy15A+8ZpwPb0j0AHAdK/PwVyQDR0LsCjzUE/g/N2P5gY5z4ndLU+QLxpP0gmNz5PWD9ARhw8wdDyk0A8t84/SPbGP0HwR7/p7e4+yyoCwM+wmj+Vs8w/
lpc_rms=-34.75
pitch_keycenter=g6
sample=SoloViolin1_tenuto_half_PP_G6.opus
</region>
</group>

<group>
group_label=MF
lpc_hicc1=84
lpc_locc1=43

<region>
hikey=a3
hivel=127
lokey=g#3
lovel=1
lpc=qpMJQexNsMHiD9BB9oiWweMQJEERAuDAYAS9QCVrZMBvNRBAIOX1v+1RQD7sdL8/TB9sv9adG8AXh5tAxdqBwPpNFkC/c+K/UhLKP7+v3z7jNre/fVq7PaA1Lj/JWdG9
lpc_rms=-31.06
pitch_keycenter=a3
sample=SoloViolin1_tenuto_half_MF_A3.opus
</region>

<region>
hikey=a4
hivel=127
lokey=g#4
lovel=1
lpc=UD4lQdZUycF9uuBBxZCkwUnTWEHX6RXBd0TAQEAnn8CpOWlAIr82v+AsCsBp4FVArR85wLYh9z70zIBAfnjVwEGPykAGppvAzq1wQFgX4b+S6UI/hJOiv2roVD+CUNw9
lpc_rms=-24.97
pitch_keycenter=a4
sample=SoloViolin1_tenuto_half_MF_A4.opus
</region>

<region>
hikey=a5
hivel=127
lokey=g#5
lovel=1
lpc=UdPKQMDe08DeO8tAAeo3wAZxMUBpKno/vZ79vg3foj+z4Gs/cdVPPwhGtD7eEdY/KKpfv3PBEkDctjE/vUwwv6QuNkAc57C/0N8gQFkUdD+b/6W/ZkwuQB+PSL9s7idA
lpc_rms=-26.22
pitch_keycenter=a5
sample=SoloViolin1_tenuto_half_MF_A5.opus
</region>

<region>
hikey=a6
hivel=127
lokey=g#6
lovel=1
lpc=WeFFQddWwsD90Se+6GLRQOwt8L+y/OM/krC4P7AAKT/vw9w+EGFMQCUdEUDfy2G+E9QUQGhjqMCodsnAvxD1QIQTVcBBtFXA/NYmQHuL+L87do6+ZYHYPafSIb5hhFrA
lpc_rms=-25.61
pitch_keycenter=a6
sample=SoloViolin1_tenuto_half_MF_A6.opus
</region>

<region>
hikey=b3
hivel=127
lokey=a#3
lovel=1
lpc=1/SUQeRrScI7HmtC/MEYwhVfXEFslZvAYTC+QInAfsBgTZK/z4t4QE9acsBJlyhALxxFwKBCgEBX7Zy/HmtNwNx1qUBk8KbASs2CQFjpQL/d53065bsqwL+7UkCIfZS/
lpc_rms=-23.86
pitch_keycenter=b3
sample=SoloViolin1_tenuto_half_MF_B3.opus
</region>

<region>
hikey=b4
hivel=127
lokey=a#4
lovel=1
lpc=GQ0GQdztiMHWanlBQVgUwUwEtUCFvIzA6VQLQNaTPL9654M/h0ENPzhfMMAYCS1AyqsuwCi33j9Ocs8/Iq4nwNnEYz/Bx/I+vhtMvdobP77AnQi/G7eJPxyy/r6KBuk+
lpc_rms=-22.80
pitch_keycenter=b4
sample=SoloViolin1_tenuto_half_MF_B4.opus
</region>

<region>
hikey=b5
hivel=127
lokey=a#5
lovel=1
lpc=g4gCQWsm6sD+g/ZAqlVGwF32J0CNICc9qBKFP6cggz+HVbI/6B0mPznCtz/A/pk/Sn1xPqkIID9WIAJA8CUev7/FJkD5PXa+joMNQIZWbL7b1gBAS4+Nv6jDfkBNEVXA
lpc_rms=-26.81
pitch_keycenter=b5
sample=SoloViolin1_tenuto_half_MF_B5.opus
</region>

<region>
hikey=b6
hivel=127
lokey=a#6
lovel=1
lpc=sedAQUmsxsCyQNk/GlZRQA4fkrvMRYLArzzcQMpsgMDeWK8/ZP27QJS0GL/a0jI/q9guwZjvlEBax54/O5c6wPiSub1il7dAQhywwNWzX0C4Po4/95GewC0alT0gU/g/
lpc_rms=-28.15
pitch_keycenter=b6
sample=SoloViolin1_tenuto_half_MF_B6.opus
</region>

<region>
hikey=c#4
hivel=127
lokey=c4
lovel=1
lpc=9ByWQYGbRcInpmxCRA8pwoLnl0GweAfBgX3QQAQy28BD+tVAO1yiwN/YVb/Wa9dAVaqwwFwOxL95pd5AujLkwGnss0DVMSDA377IP+FkGr8F54+/Pa8IQI8QDsBwSD0/
lpc_rms=-25.02
pitch_keycenter=c#4
sample=SoloViolin1_tenuto_half_MF_C#4.opus
</region>

<region>
hikey=c#5
hivel=127
lokey=c5
lovel=1
lpc=rqqLQPcQB8GJBPlAy0WEwE/6M0BRDGfAwFEoQMnN/L7GSZG/kFgHQMDqJcAPGhZAfKidv2kiKD7/IjA/3Acjv/rlDD9PBbq+n6r3PtrsSr/75oc/TtqFvlIZGr+KmCk/
lpc_rms=-28.92
pitch_keycenter=c#5
sample=SoloViolin1_tenuto_half_MF_C#5.opus
</region>

<region>
hikey=c#6
hivel=127
lokey=c6
lovel=1
lpc=tG7jQCKgocBxIGxAmveHvz0aID9UOdU+GbHpPi/fMz+Fa60+wrXCPkMPFD9O/r8+2XYlPyUrUj4XY14/FfUev+gYwj+xq8g9wRm5PqadLj9vin0/56CFwDzllT7AccY+
lpc_rms=-31.14
pitch_keycenter=c#6
sample=SoloViolin1_tenuto_half_MF_C#6.opus
</region>

<region>
hikey=E7
hivel=127
lokey=c7
lovel=1
lpc=GQQgQbh22MB0asc/zrIBP6lpgL86TbM/ZpxYvddE3b4HJP4/AtoxQB2/SsDdmCXBHWkmQcvkyL/Rrno/Leg9P373Wb/gqok/Z/jYPsrZB8DVk0+/CHGsP2BqPkAY0HHA
lpc_rms=-34.89
pitch_keycenter=C#7
sample=SoloViolin1_tenuto_half_MF_C#7.opus
</region>

<region>
hikey=d#4
hivel=127
lokey=d4
lovel=1
lpc=xfneQMCekcH/9rJBKFGFwb4RDEGOF5vAzpyaQMDVjcCzzQ9AztEWvTEY678fHz1AkPkhwIlQXD+P54s/n6EvwNK8LUBN2xa/I3zKvz+EDkBw5+i/0uKKP/YRMb+f2us+
lpc_rms=-32.06
pitch_keycenter=d#4
sample=SoloViolin1_tenuto_half_MF_D#4.opus
</region>

<region>
hikey=d#5
hivel=127
lokey=d5
lovel=1
lpc=EeCEQP3K/cCpFN5Ara+LwOQjgkBiq5fA6u+MQKqyRMCTXBNAUIWnvykIVD514kk/A0eJv+K4+z4k5aQ+Aco3PV4ber6tVd28SIi3Pj272b59gME+gU5VPYnHA77CE0c+
lpc_rms=-29.13
pitch_keycenter=d#5
sample=SoloViolin1_tenuto_half_MF_D#5.opus
</region>

<region>
hikey=d#6
hivel=127
lokey=d6
lovel=1
lpc=ONTwQBDWl8ByIXhARnDlvRhF3j9/nlG/9M4mQDmcfb/Q79o/NpcNP1CXUD9A+8k+pJ+4P/NcmD4Rcp0/t3YAPqHP6z9WO7e+LfvdP7Mao8Brc8Q/+WkjPzkrwL9aiAo/
lpc_rms=-27.22
pitch_keycenter=d#6
sample=SoloViolin1_tenuto_half_MF_D#6.opus
</region>

<region>
hikey=f4
hivel=127
lokey=e4
lovel=1
lpc=1dQVQXLOssEKe7tBgPN1wahOBEHIPqLAzf4yQMeWQL91eqW/aRBxQOnep8DMIbBA48ykwNzDF0Ay1SJAG6KcwNnmfUCzB3fAllmQQHxd7b8CJ5C/oo90PvPgsz4+QL8+
lpc_rms=-27.78
pitch_keycenter=f4
sample=SoloViolin1_tenuto_half_MF_F4.opus
</region>

<region>
hikey=f5
hivel=127
lokey=e5
lovel=1
lpc=enpvQBfyy8CEqKVAKBTWv7sOtD+VqTHA8i0qQD4njL+Buy0/WdkHv+5vIj77YWY/yu2bvgkpor7z1UE/M/A8v4ywrT8op9y/Gz/QP0L+qr/eI7U/cTgwvzSMgD5WQbE+
lpc_rms=-30.68
pitch_keycenter=f5
sample=SoloViolin1_tenuto_half_MF_F5.opus
</region>

<region>
hikey=f6
hivel=127
lokey=e6
lovel=1
lpc=lhA0QYH/A8HAZbFAnsZLP5ZBrj/A3Z8/PwSmP/F1174zkIQ//VHAPhLL3j6blAo/mN0APxE4Iz4hXkw/hInxvq8pIkAZ+SvBEvGmQDknsr+tMgLAL2qPvrfunr+5HJ6+
lpc_rms=-28.24
pitch_keycenter=f6
sample=SoloViolin1_tenuto_half_MF_F6.opus
</region>

<region>
hivel=127
key=g3
lovel=1
lpc=0M2CQUsnPcJnL3dCFN46woLUrUEkfQnBMDXUQDVZpMAHKAFASt4Mvuo4W8CVCcVAn39SwEeMEcDiuspAU2gCwcHTC0FHB/PAUeRIQIsIIkANfGXApNILQGmbwb+Sx1I/
lpc_rms=-24.81
sample=SoloViolin1_tenuto_half_MF_G3.opus
</region>

<region>
hikey=g4
hivel=127
lokey=f#4
lovel=1
lpc=U0ITQbUzu8Hy+dFB3sCQwT1LJkE5I+HAY+ueQB2gA8B1Iuy/iWq/QAGT9cBVh9pA8bS0wIbcFUAqXQJAw5xMwOwIFED/wT7AXkF7QFax1b+/7ZG/5s2yP3BKar8vSSc/
lpc_rms=-25.75
pitch_keycenter=g4
sample=SoloViolin1_tenuto_half_MF_G4.opus
</region>

<region>
hikey=g5
hivel=127
lokey=f#5
lovel=1
lpc=q5hXQMF7nsB5+oxAt5QlwBqc+D+9eL2/3irBP0NQMr8E934/JRZsvujRqz0wkK293RDvPnoTQb8XLsw/p9hwv7bkmz/PYV6/wiXyPjU+TD0hKHW+4wBkPxV0Er8c0T0/
lpc_rms=-26.96
pitch_keycenter=g5
sample=SoloViolin1_tenuto_half_MF_G5.opus
</region>

<region>
hikey=g6
hivel=127
lokey=f#6
lovel=1
lpc=UdocQfd8NcCZxJu8/ZauP8wM0D9tGve/lnFfQM52A0AbB0+/Ab79P2/Awz5/jJs/2rLaP/CS5j4IQRpAShLdwMZ8m76g309A/4LtvrAjM7/kbBJAjznru7PUNMD+4/w/
lpc_rms=-27.40
pitch_keycenter=g6
sample=SoloViolin1_tenuto_half_MF_G6.opus
</region>
</group>

<group>
group_label=FF
lpc_hicc1=127
lpc_locc1=85

<region>
hikey=a3
hivel=127
lokey=g#3
lovel=1
lpc=eqAHQWmYs8EcKeBBL5apwVraIkH53pDAzgqcQCJMp8DmrT5A5k5svtm70b+3suI//rhQv6aeTb+y4BRAJeUawGGokT+G7xw/jxxiv4HaEz9RsRS/lzBTP2lCjL+axDw/
lpc_rms=-27.09
pitch_keycenter=a3
sample=SoloViolin1_tenuto_half_FF_A3.opus
</region>

<region>
hikey=a4
hivel=127
lokey=g#4
lovel=1
lpc=6p8yQcBg4MGJ0f1BEvytwUleP0FPAw/BGpX5QEp72MDikLVAhnAjwJhCIcBoiZpAvKE8wLrClb9PP61A+FDlwP242UBlXJ7ABkguQJNMZb9wdgM/pXIqv2kUnT8epkW/
lpc_rms=-22.46
pitch_keycenter=a4
sample=SoloViolin1_tenuto_half_FF_A4.opus
</region>

<region>
hikey=a5
hivel=127
lokey=g#5
lovel=1
lpc=fdnFQP2jzMBlLa9AYG5OvvQ0hL4t1Pw/kpd0P1XiEr/0V9k/SbfIP0jKfb/X/+U/ap/XP0Nvmb8QE+k/KSLtP4xef7+4paA/9bUbQInXqL9PWLc/F+QUQIObFMBaCHBA
lpc_rms=-20.09
pitch_keycenter=a5
sample=SoloViolin1_tenuto_half_FF_A5.opus
</region>

<region>
hikey=a6
hivel=127
lokey=g#6
lovel=1
lpc=kqAeQbmPj8CXggFABuLQP5fKHT8LXQVAr3t/v/+WGEBfKWW/kGZCQPlYBUAlphM/72YCQBALicBrv4LAWIOpQG7/Q8DrDzA/06Mdv2n4G76PMK4/7Pedv2hSxz9gPEXA
lpc_rms=-23.26
pitch_keycenter=a6
sample=SoloViolin1_tenuto_half_FF_A6.opus
</region>

<region>
hikey=b3
hivel=127
lokey=a#3
lovel=1
lpc=PGiLQZ/oPcJTPG5CtGg6woC210FD8ILBBMcvQYbunMC3jH0/OTFjP6HBrcA/wC1Ba8VHwU/W+0DX42U+h4G3wCn39UDzVerAmgb+QPGL6cCzR6FAfvxDwKKuYj+u1as+
lpc_rms=-21.36
pitch_keycenter=b3
sample=SoloViolin1_tenuto_half_FF_B3.opus
</region>

<region>
hikey=b4
hivel=127
lokey=a#4
lovel=1
lpc=eJ0YQaI2kcEi3ndBPM4WwQy55UDqVQDBi7L+QJVz2cBo7rtA/92BwP3bjj8VFYI/8NO9v8d+Fb9mPnZAnWUHwOtDoL8767g/awOQv0AL0D5GoP8+JxUbP1fEY7/HbGM/
lpc_rms=-19.93
pitch_keycenter=b4
sample=SoloViolin1_tenuto_half_FF_B4.opus
</region>

<region>
hikey=b5
hivel=127
lokey=a#5
lovel=1
lpc=SOHiQJ18psAwrb5AQhb6v4u0gkBdnse/oul1QOx9Ir8bkxlAK81DP59c3j90nNE+vTYVQM44wz519+I/xhGCP1f+6j8doC09jnRRQA+Qqb/KnGpA4faOv11yhUAC4xbA
lpc_rms=-22.91
pitch_keycenter=b5
sample=SoloViolin1_tenuto_half_FF_B5.opus
</region>

<region>
hikey=b6
hivel=127
lokey=a#6
lovel=1
lpc=SaU9QbkyY8CtXog/CFl5QKarGjz5mI7AeMR6QJ0s4r+6E0Y4Qzu7QGzdgj+RD74/GbMgwcHXBkDW1LQ/uIJLwNiLLz9VUJ1AhXASwOgTDUBfT9o/+YiqwJaJCr89pkA+
lpc_rms=-25.09
pitch_keycenter=b6
sample=SoloViolin1_tenuto_half_FF_B6.opus
</region>

<region>
hikey=c#4
hivel=127
lokey=c4
lovel=1
lpc=4MOiQVJnW8IXzYVCIABNwlc180HSMaTBAtlWQUkii8ATFg3AjPV0QPMinMBWmOxAC1P8wIBk1T8H7wpBaaRZwW0LQUHJPNPA0stLQFrRMr0cRvW/mQJwP3cZob+Mhlw/
lpc_rms=-21.48
pitch_keycenter=c#4
sample=SoloViolin1_tenuto_half_FF_C#4.opus
</region>

<region>
hikey=c#5
hivel=127
lokey=c5
lovel=1
lpc=RgyOQEIdBsH3PgFBeN20wMjIk0DhTY/AW7o2QBmFxL8knLs+6KFfPnEtJj+7Jme/DUawP60qB8BcslZADOIuwJiluz9rzOi/jrMEQGESor83o5I9XMtDP8SdRb/uji8/
lpc_rms=-26.85
pitch_keycenter=c#5
sample=SoloViolin1_tenuto_half_FF_C#5.opus
</region>

<region>
hikey=c#6
hivel=127
lokey=c6
lovel=1
lpc=FvIHQcxNqsBJGJFAQN/Tv1jBFUCIcD+/kqsAQGxVAj6khGY/yG0kPwS8ST8xbDY/cPZlP7R9KT+ae20/0+HlPlUkgj/tDYM+gDT3P+wmsb9vZnFARJKrwESaKr8CS2Q/
lpc_rms=-25.06
pitch_keycenter=c#6
sample=SoloViolin1_tenuto_half_FF_C#6.opus
</region>

<region>
hikey=E7
hivel=127
lokey=c7
lovel=1
lpc=3ysdQYfeosA9s/o+I3ewPygtn71eE7Q+tgOHPzjr5L1Bf8g/JvUnQN+4+L/A5kbBgpslQVDL4T5epii/TT6OP+ESUr4jHRU+LJ8fP+RMrb9PaZK/HGKqPx7EmEDEWqzA
lpc_rms=-29.43
pitch_keycenter=C#7
sample=SoloViolin1_tenuto_half_FF_C#7.opus
</region>

<region>
hikey=d#4
hivel=127
lokey=d4
lovel=1
lpc=BXXgQHsLkMGTSa1BGuSBwZ5OD0FVoIbA6IAJQOrEkr/VmTo/Soqsvh3Kpr+Q/lJAzshUwAJTQz/aYAJAHv9XwKP3XkDPXEnAPPQsQMh1+79wjdk/rlL5v1FamT+76aS8
lpc_rms=-30.66
pitch_keycenter=d#4
sample=SoloViolin1_tenuto_half_FF_D#4.opus
</region>

<region>
hikey=d#5
hivel=127
lokey=d5
lovel=1
lpc=TLiQQD2UBsFymNRASFRPwKh+X0AROZXAPWaZQHrXiMDc4WFAsBIYwArCC0DsIea/lII7P9ShFL9488s/pye+vrAagr/QEN8+zsPEPvvtqL6IIo8+p18gPjOiKr5mADs+
lpc_rms=-25.85
pitch_keycenter=d#5
sample=SoloViolin1_tenuto_half_FF_D#5.opus
</region>

<region>
hikey=d#6
hivel=127
lokey=d6
lovel=1
lpc=esQcQeFWpsCh0C5AS0HpP0Xr2D9q6Lg+3gxzP87oVj8B3n4+5grfP5lC372R4KQ/Fxf9PkPFoz/kKIM+cPaDP0rjdD+Wudo+bPMTQKFX/cD7GQZA7OZyP/Fa8r8MBkO/
lpc_rms=-20.29
pitch_keycenter=d#6
sample=SoloViolin1_tenuto_half_FF_D#6.opus
</region>

<region>
hikey=f4
hivel=127
lokey=e4
lovel=1
lpc=gBAEQehjocHsbrNBhRRuwUREyEBZ3SfAcq/mPxZKBcDKRaY/D1gqQF4l0sB2XN9A2kCCwG9gUD4ZG/s/z4K1v5DagD4qlp2+NkaBP5jOZr/F9z++T1QIP0RXGL5WZ0w+
lpc_rms=-24.16
pitch_keycenter=f4
sample=SoloViolin1_tenuto_half_FF_F4.opus
</region>

<region>
hikey=f5
hivel=127
lokey=e5
lovel=1
lpc=f2SEQCF14MCG9MBAA+ZMwE2QREBQTEzAae8MQH1wor/WD20/CCXCvmQsZD8kSba/uaPhPw50mL++Hpw/emwdvyEyeT42mg+/p054PyR07j3RPfm+XhCWPuDa9D5pdzg9
lpc_rms=-26.86
pitch_keycenter=f5
sample=SoloViolin1_tenuto_half_FF_F5.opus
</region>

<region>
hikey=f6
hivel=127
lokey=e6
lovel=1
lpc=TaEEQbgjmsAiVnpA6vArQFXSXr9wlfw/Dr+pP7cFYz+F2IM+lGxbP+L8Hj8Bvw4/qFlJPzbCBT768Ic/CqvUPi2+hT9cmtfAhItJQGkXlL8Qn1jAFiIBQD6Usb/lUFG/
lpc_rms=-24.44
pitch_keycenter=f6
sample=SoloViolin1_tenuto_half_FF_F6.opus
</region>

<region>
hivel=127
key=g3
lovel=1
lpc=RRtsQRT+KMJavlxCLeQnwo1Tn0EGTQXBqqDLQB6njsDF2Yk+fQJEQLiYsMCfL5NAO+1Av7eXQMCOF8RAXbnMwCkxYUDKfju/zJwav4k0WkAPfd3A/hsLQe9MycBXmgJA
lpc_rms=-21.78
sample=SoloViolin1_tenuto_half_FF_G3.opus
</region>

<region>
hikey=g4
hivel=127
lokey=f#4
lovel=1
lpc=MkcBQf6SosESJbxBsb6Fwb53CkE516nAhmOXQIxBb8BEvfg/B3KVP3sAesA+JpRASlmQwDizBUA6ZtM/1u0zwH0bKkBqJTbAsJsTQNxxNr8LUx2/JqiRPVS3PT85f8K9
lpc_rms=-22.32
pitch_keycenter=g4
sample=SoloViolin1_tenuto_half_FF_G4.opus
</region>

<region>
hikey=g5
hivel=127
lokey=f#5
lovel=1
lpc=PkMkQBTIYMAlOkZAycvGv2khaz/wAhG/zOeSPzrtUb8ZNTo/hyHhPQnu370DkK29QqBHPxACa7+M+4g/o+ssviXMoD4A26a+nsQ3P7Fk3L7ONc48A9RRP/5NSr9Yxko/
lpc_rms=-24.50
pitch_keycenter=g5
sample=SoloViolin1_tenuto_half_FF_G5.opus
</region>

<region>
hikey=g6
hivel=127
lokey=f#6
lovel=1
lpc=bBL9QLdoS8ARAQNAOWPLP/pk8D9vBeK/0PFOQCqMOrw43V2+6GXCPzLtaT9wRyU/QEAOQMz1GLy/DBhApOqnwDzRMz9I8M8/bBKiv4ubF79Gv+8/clOfPaIUl793nBdA
lpc_rms=-24.98
pitch_keycenter=g6
sample=SoloViolin1_tenuto_half_FF_G6.opus
</region>
</group>